<?xml version="1.0" encoding="UTF-8"?>
<svg width="400px" height="400px" viewBox="0 0 400 400" version="1.1" xmlns="http://www.w3.org/2000/svg" xmlns:xlink="http://www.w3.org/1999/xlink">
    <title>logo</title>
    <g id="页面-1" stroke="none" stroke-width="1" fill="none" fill-rule="evenodd">
        <g id="logo" transform="translate(0.000000, 0.800000)" fill-rule="nonzero">
            <path d="M378.008818,160.987496 C262.752748,171.508334 171.440461,262.862143 160.924405,378.170626 C160.417794,383.77883 162.29796,389.340837 166.102999,393.490215 C169.908038,397.639594 175.285308,399.99179 180.913762,399.971826 L260.871187,399.971826 C270.904486,400.067728 279.456302,392.709822 280.860545,382.770269 C288.523366,330.274616 329.734791,289.04445 382.206583,281.378145 C392.141618,279.973263 399.496176,271.41756 399.397428,261.379699 L399.397428,181.385912 C399.652861,175.69648 397.471549,170.167973 393.400621,166.187092 C389.237062,162.352198 383.643807,160.462707 378.008818,160.987496 Z" id="路径" fill="#FFFFFF"></path>
            <path d="M378.408604,79.9937869 C218.092222,90.4048514 90.3738433,218.181309 79.9675113,378.570596 C79.6109791,384.102483 81.5655282,389.534254 85.3646376,393.569431 C89.132067,397.633577 94.4165166,399.951104 99.9568678,399.969433 L179.914294,399.969433 C190.288074,400.011044 198.970088,392.106819 199.903651,381.770346 C208.581835,286.193594 284.274549,210.466458 379.80786,201.784327 C390.139634,200.85034 398.040267,192.164378 397.998174,181.78588 L397.998174,99.9922337 C398.251203,94.9783029 396.610035,90.0525634 393.400621,86.1933055 C389.503711,82.0998019 384.057152,79.8475341 378.408604,79.9937869 Z" id="路径" fill="#FFC0CB"></path>
            <path d="M379.80786,0 C174.353578,10.0443789 10.0498981,174.422776 0.0100848362,379.970486 C-0.157759835,385.413892 1.77486305,390.71312 5.4072111,394.769337 C9.37507058,398.394218 14.6345394,400.268304 19.9994415,399.968934 L99.9568678,399.968934 C110.472553,399.994737 119.210156,391.865071 119.946224,381.370379 C129.588782,241.978703 240.479544,131.037514 379.80786,121.390572 C385.360951,121.404201 390.669452,119.10617 394.461142,115.047218 C398.252829,110.988266 400.185951,105.534239 399.797216,99.9922337 L399.797216,19.9984468 C399.722541,14.6247388 397.489158,9.50724738 393.600516,5.79954986 C389.926697,2.15301769 384.982469,0.0740631923 379.80786,0 Z" id="路径" fill="#17F4FE"></path>
            <path d="M393.600516,5.79954986 C389.926697,2.15301769 384.982469,0.0740631923 379.80786,0 C174.353578,10.0443789 10.0498981,174.422776 0.0100848362,379.970486 C-0.157759835,385.413892 1.77486305,390.71312 5.4072111,394.769337 C9.37507058,398.394218 14.6345394,400.268304 19.9994415,399.968934 L261.470868,399.968934 C271.504166,400.067728 280.055983,392.709822 281.460226,382.770269 C289.123047,330.274616 330.334471,289.04445 382.806264,281.378145 C392.741299,279.973263 400.095857,271.41756 399.999055,261.379699 L399.999055,19.9984468 C399.870331,14.5951731 397.56293,9.47329973 393.600516,5.79954986 Z M350.823292,165.787123 L338.429892,168.586906 L330.634043,170.986719 L319.839791,173.986486 L312.043942,176.986253 L301.449582,181.385912 L293.853625,184.985632 C290.388805,186.585508 286.990613,188.385368 283.659054,190.385213 L276.66278,194.384902 L266.668101,200.784405 L260.271506,204.984079 L250.076935,212.983457 L244.879704,216.983147 C240.282151,220.982836 235.684599,225.18251 231.28694,229.582168 L230.087579,230.782075 L217.494284,244.381018 C216.095029,246.180878 214.895668,247.980738 213.496413,249.580615 C212.097158,251.180491 208.099287,256.380086 205.700564,259.779822 L201.302905,266.179326 C199.104076,269.57906 196.905247,272.778814 194.906311,276.178548 C193.41412,278.486134 192.078492,280.891357 190.90844,283.377989 C188.914409,286.601975 187.112236,289.94085 185.511314,293.377213 L181.91323,300.976623 C180.314081,304.576344 178.914826,307.976078 177.515571,311.575798 L173.917487,319.975146 C172.584863,323.841512 171.385502,327.641219 170.319403,331.374261 L167.92068,339.173655 C166.921212,343.173345 166.121638,347.373019 165.12217,351.572693 C164.122702,355.772366 165.12217,356.37232 163.722915,358.972117 C163.633448,359.501655 163.633448,360.042458 163.722915,360.571994 L123.744202,360.571994 L123.744202,358.17218 C123.744202,357.372243 124.943564,352.172646 125.543244,349.172879 C126.142925,346.173112 127.342286,339.173655 128.541648,334.174044 C129.741009,329.174433 130.34069,327.974526 131.140264,324.774773 C131.939838,321.575023 133.73888,315.575489 135.338029,310.975845 C136.937177,306.376204 137.536858,304.776327 138.73622,301.576577 C139.935581,298.376824 142.13441,292.977243 143.933452,288.577586 L147.73143,279.978254 C149.730366,275.778581 151.929195,271.578907 154.128024,267.579217 L159.924937,257.979962 L167.720786,245.78091 C169.319935,243.181111 171.118977,240.581314 172.918019,238.1815 C174.717061,235.781686 179.11472,229.782152 182.313017,225.582479 C185.511313,221.382805 185.511314,221.382805 187.310356,219.582945 C192.307695,213.583411 197.504928,207.783861 202.902054,202.384281 C208.29918,196.9847 214.096094,191.785104 219.893007,186.785492 C221.891943,184.985632 224.090772,183.585741 226.089707,181.985865 C228.088643,180.385989 234.285344,175.386378 238.683002,172.386611 L246.278958,167.187015 L257.872784,159.987574 L266.268313,155.387931 C270.399449,152.988117 274.597214,150.788288 278.861608,148.788443 L287.856819,144.788754 C292.152408,142.748733 296.556691,140.946161 301.049794,139.389174 L310.244899,135.989438 C314.84245,134.389562 319.440003,132.989671 324.237448,131.789764 L333.432551,129.189966 L348.824357,125.990214 L357.219887,124.390339 L359.818502,124.390339 L359.818502,164.387232 L358.219355,164.387232 L350.823292,165.787123 Z M359.818502,41.996738 L359.818502,81.9936317 L354.02159,81.9936317 L341.828081,83.9934761 L326.236383,87.1932277 L314.242769,90.3929793 C309.245431,91.7928707 304.248092,93.1927617 299.450647,94.9926219 L287.856819,99.9922337 L273.464482,105.791783 L262.470336,110.791395 C257.672891,112.991224 253.075338,115.391038 248.477788,117.990836 L238.283215,123.5904 C233.48577,126.390183 229.088111,129.38995 224.490559,132.389717 C219.893007,135.389485 218.293858,136.189422 215.295455,138.389251 C212.297051,140.58908 205.900458,145.588692 201.103012,149.188413 C196.305566,152.788133 196.105673,152.988118 193.906844,154.987962 C187.110462,160.587527 180.713868,166.587061 173.917487,172.586595 L172.518232,173.986486 C166.521425,180.186005 160.524618,186.585508 154.927598,193.984933 C152.928663,196.184762 151.12962,198.78456 149.130685,201.184374 C147.13175,203.584187 141.734623,210.583644 138.336432,215.383271 C134.938242,220.182898 134.338561,221.582789 132.339625,224.582556 C130.34069,227.582323 126.342818,233.581857 123.544308,238.381485 C120.745798,243.181111 119.746331,245.180957 117.947289,248.580691 C116.148247,251.980428 112.94995,257.779979 110.75112,262.579606 C108.552291,267.379233 107.35293,269.779047 105.753781,273.578751 C104.154633,277.378455 101.75591,283.178005 99.9568678,287.977632 C98.1578257,292.777259 97.158358,295.577043 95.9589964,299.57673 C94.7596345,303.576421 92.7606992,309.375971 91.3614445,314.375582 C89.9621896,319.375193 89.1626152,322.37496 88.1631473,326.37465 C87.1636792,330.37434 85.9643183,336.773841 84.9648504,341.973438 C83.9653827,347.173035 83.5655955,350.172802 82.9659148,354.17249 C82.3662341,358.17218 82.9659148,357.972196 82.9659148,359.97204 L42.9872016,359.97204 C61.4954012,193.001211 192.98269,61.0391536 359.818502,41.996738 L359.818502,41.996738 Z M245.079596,359.97204 L205.100883,359.97204 L205.100883,357.372243 C206.848385,349.038377 209.118331,340.82278 211.897265,332.774154 L211.897265,330.974293 C214.980744,322.84946 218.517763,314.904239 222.491623,307.176141 L224.890346,302.776484 C228.930472,295.515128 233.402811,288.50305 238.283215,281.778115 L241.081724,278.178394 C251.687588,264.362358 264.052385,251.991938 277.862142,241.381251 L281.460226,238.581469 C288.220786,233.653635 295.299077,229.177587 302.648943,225.18251 L306.846708,222.982681 C314.527877,218.859608 322.474507,215.251934 330.634043,212.18352 L332.23319,212.18352 C340.320995,209.271188 348.603749,206.932251 357.019994,205.184063 L359.618609,205.184063 L359.618609,245.180957 C303.444374,259.811423 259.605441,303.746834 245.079596,359.97204 L245.079596,359.97204 Z" id="形状" fill="#486675"></path>
        </g>
    </g>
</svg>