<?xml version="1.0" encoding="UTF-8"?>
<svg width="167px" height="167px" viewBox="0 0 167 167" version="1.1" xmlns="http://www.w3.org/2000/svg" xmlns:xlink="http://www.w3.org/1999/xlink">
    <title>未命名</title>
    <g id="页面-1" stroke="none" stroke-width="1" fill="none" fill-rule="evenodd">
        <g id="编组" fill-rule="nonzero">
            <path d="M157.587538,67.0833334 C109.538605,71.4673564 71.4715606,109.5344 67.0875377,157.583333 C66.8763372,159.920266 67.6601568,162.237949 69.246434,163.966991 C70.8327112,165.696033 73.0744331,166.676191 75.420871,166.667478 L108.754204,166.667478 C112.936971,166.707834 116.502125,163.641802 117.087538,159.5 C120.28208,137.625112 137.46265,120.444542 159.337538,117.25 C163.47934,116.664587 166.545371,113.099434 166.504204,108.916667 L166.504204,75.5833334 C166.610691,73.2125528 165.701327,70.9088293 164.004204,69.25 C162.268464,67.6520034 159.9367,66.8646545 157.587538,67.0833334 Z" id="路径" fill="#FFFFFF"></path>
            <path d="M157.754204,33.3333334 C90.9201442,37.6716139 37.6758181,90.91594 33.3375377,157.75 C33.1889035,160.055132 34.0037326,162.318546 35.5875377,164 C37.1581358,165.693526 39.3611622,166.659237 41.670871,166.666806 L75.0042043,166.666806 C79.3289143,166.684214 82.9483461,163.390531 83.3375377,159.083333 C86.9553733,119.256593 118.510797,87.701169 158.337538,84.0833334 C162.644736,83.6941419 165.938419,80.07471 165.920871,75.75 L165.920871,41.6666668 C166.026356,39.5773667 165.342172,37.5248158 164.004204,35.9166668 C162.379627,34.2109078 160.109019,33.27239 157.754204,33.3333334 Z" id="路径" fill="#FFC0CB"></path>
            <path d="M158.337538,0 C72.6860056,4.18548294 4.18968719,72.6818014 0.00420425247,158.333333 C-0.0657682648,160.601595 0.739920037,162.809778 2.25420425,164.5 C3.90835933,166.010484 6.10097152,166.791414 8.33753765,166.666667 L41.670871,166.666667 C46.0547393,166.677419 49.6973457,163.289795 50.0042043,158.916667 C54.0240758,100.832291 100.253162,54.603205 158.337538,50.5833334 C160.652558,50.5890127 162.865611,49.6314253 164.446323,47.940064 C166.027034,46.2487027 166.83293,43.976015 166.670871,41.6666668 L166.670871,8.3333334 C166.63974,6.09411447 165.708668,3.96166076 164.087538,2.4166668 C162.555965,0.897160383 160.494773,0.0308620604 158.337538,0 Z" id="路径" fill="#17F4FE"></path>
            <path d="M164.087538,2.4166668 C162.555965,0.897160383 160.494773,0.0308620604 158.337538,0 C72.6860056,4.18548294 4.18968719,72.6818014 0.00420425247,158.333333 C-0.0657682648,160.601595 0.739920037,162.809778 2.25420425,164.5 C3.90835933,166.010484 6.10097152,166.791414 8.33753765,166.666667 L109.004204,166.666667 C113.186971,166.707834 116.752125,163.641802 117.337538,159.5 C120.53208,137.625112 137.71265,120.444542 159.587538,117.25 C163.72934,116.664587 166.795371,113.099434 166.754614,108.916667 L166.754614,8.3333334 C166.701352,6.08179447 165.739423,3.94751481 164.087538,2.4166668 Z M146.254204,69.0833334 L141.087538,70.25 L137.837538,71.25 L133.337538,72.5 L130.087538,73.75 L125.670871,75.5833334 L122.504204,77.0833334 C121.05976,77.7500001 119.643093,78.5000001 118.254204,79.3333334 L115.337538,81 L111.170871,83.6666668 L108.504204,85.4166668 L104.254204,88.75 L102.087538,90.4166668 C100.170871,92.0833334 98.2542043,93.8333334 96.420871,95.6666668 L95.920871,96.1666668 L90.670871,101.833333 C90.0875377,102.583333 89.5875377,103.333333 89.0042043,104 C88.4208709,104.666667 86.7542043,106.833333 85.7542043,108.25 L83.920871,110.916667 C83.0042044,112.333333 82.0875377,113.666667 81.2542043,115.083333 C80.6321268,116.044902 80.0753188,117.047156 79.5875377,118.083333 C78.7562491,119.426765 78.0049438,120.818071 77.3375377,122.25 L75.8375377,125.416667 C75.170871,126.916667 74.5875377,128.333333 74.0042043,129.833333 L72.5042043,133.333333 C71.9486487,134.944444 71.4486487,136.527778 71.0042043,138.083333 L70.0042043,141.333333 C69.5875377,143 69.2542043,144.75 68.8375377,146.5 C68.420871,148.25 68.8375377,148.5 68.2542043,149.583333 C68.2169064,149.803991 68.2169064,150.029343 68.2542043,150.25 L51.5875377,150.25 L51.5875377,149.25 C51.5875377,148.916667 52.0875377,146.75 52.3375377,145.5 C52.5875377,144.25 53.0875377,141.333333 53.5875377,139.25 C54.0875377,137.166667 54.3375377,136.666667 54.670871,135.333333 C55.0042044,134 55.7542044,131.5 56.420871,129.583333 C57.0875377,127.666667 57.3375377,127 57.8375377,125.666667 C58.3375377,124.333333 59.2542043,122.083333 60.0042043,120.25 L61.5875377,116.666667 C62.420871,114.916667 63.3375377,113.166667 64.2542043,111.5 L66.670871,107.5 L69.920871,102.416667 C70.5875377,101.333333 71.3375377,100.25 72.0875377,99.25 C72.8375377,98.2499998 74.670871,95.75 76.0042043,94 C77.3375375,92.25 77.3375377,92.25 78.0875377,91.5 C80.170871,89 82.3375377,86.5833334 84.5875377,84.3333334 C86.8375377,82.0833334 89.2542043,79.9166668 91.670871,77.8333334 C92.5042044,77.0833334 93.420871,76.5 94.2542043,75.8333334 C95.0875377,75.1666668 97.6708709,73.0833334 99.5042043,71.8333334 L102.670871,69.6666668 L107.504204,66.6666668 L111.004204,64.75 C112.726427,63.75 114.476427,62.8333334 116.254204,62 L120.004204,60.3333334 C121.794986,59.4832584 123.631081,58.7321284 125.504204,58.0833334 L129.337538,56.6666668 C131.254204,56.0000002 133.170871,55.4166668 135.170871,54.9166668 L139.004204,53.8333334 L145.420871,52.5 L148.920871,51.8333334 L150.004204,51.8333334 L150.004204,68.5 L149.337538,68.5 L146.254204,69.0833334 Z M150.004204,17.5 L150.004204,34.1666668 L147.587538,34.1666668 L142.504204,35 L136.004204,36.3333334 L131.004204,37.6666668 C128.920871,38.2500002 126.837538,38.8333334 124.837538,39.5833334 L120.004204,41.6666668 L114.004204,44.0833334 L109.420871,46.1666668 C107.420871,47.0833334 105.504204,48.0833334 103.587538,49.1666668 L99.3375377,51.5 C97.3375377,52.6666666 95.5042043,53.9166666 93.5875377,55.1666668 C91.670871,56.416667 91.0042043,56.7500002 89.7542043,57.6666668 C88.5042043,58.5833334 85.8375377,60.6666668 83.8375377,62.1666668 C81.8375377,63.6666668 81.7542043,63.7500002 80.8375377,64.5833334 C78.0042043,66.9166668 75.3375377,69.4166668 72.5042043,71.9166668 L71.920871,72.5 C69.420871,75.0833334 66.920871,77.75 64.5875377,80.8333334 C63.7542043,81.75 63.0042043,82.8333334 62.170871,83.8333334 C61.3375378,84.8333334 59.0875377,87.75 57.670871,89.75 C56.2542044,91.75 56.0042044,92.3333334 55.170871,93.5833334 C54.3375377,94.8333334 52.670871,97.3333334 51.5042043,99.3333334 C50.3375375,101.333333 49.920871,102.166667 49.170871,103.583333 C48.420871,105 47.0875377,107.416667 46.170871,109.416667 C45.2542044,111.416667 44.7542044,112.416667 44.0875377,114 C43.420871,115.583333 42.420871,118 41.670871,120 C40.920871,122 40.5042044,123.166667 40.0042043,124.833333 C39.5042041,126.5 38.6708709,128.916667 38.0875377,131 C37.5042044,133.083333 37.170871,134.333333 36.7542043,136 C36.3375375,137.666667 35.8375377,140.333333 35.420871,142.5 C35.0042044,144.666667 34.8375377,145.916667 34.5875377,147.583333 C34.3375377,149.25 34.5875377,149.166667 34.5875377,150 L17.920871,150 C25.636727,80.4234173 80.4522685,25.4349561 150.004204,17.5 L150.004204,17.5 Z M102.170871,150 L85.5042043,150 L85.5042043,148.916667 C86.2327179,145.443953 87.1790322,142.020522 88.3375377,138.666667 L88.3375377,137.916667 C89.623005,134.531057 91.0975477,131.220291 92.7542043,128 L93.7542043,126.166667 C95.4384865,123.140867 97.3029534,120.218941 99.3375377,117.416667 L100.504204,115.916667 C104.925667,110.159538 110.080409,105.004796 115.837538,100.583333 L117.337538,99.4166668 C120.155938,97.3632431 123.106796,95.4980782 126.170871,93.8333334 L127.920871,92.9166668 C131.123062,91.1985862 134.435921,89.6952719 137.837538,88.4166668 L138.504204,88.4166668 C141.875917,87.2031011 145.328902,86.2284684 148.837538,85.5 L149.920871,85.5 L149.920871,102.166667 C126.502477,108.263168 108.226529,126.571011 102.170871,150 L102.170871,150 Z" id="形状" fill="#486675"></path>
        </g>
    </g>
</svg>